<?xml version="1.0" standalone="no"?><!DOCTYPE svg PUBLIC "-//W3C//DTD SVG 1.1//EN" "http://www.w3.org/Graphics/SVG/1.1/DTD/svg11.dtd"><svg t="1773047943160" class="icon" viewBox="0 0 1024 1024" version="1.1" xmlns="http://www.w3.org/2000/svg" p-id="11508" xmlns:xlink="http://www.w3.org/1999/xlink" width="200" height="200"><path d="M214.975143 63.96994l106.214067 0c58.474786-1.042749 105.086383 52.638871 104.555288 91.855034-0.25071 18.99461 0 39.366589 0 39.366589l0 0c0.10847 0.326435 380.545062 0 380.545062 0 35.81981 0 69.207222 7.622608 92.824105 31.023574l0.057305 0.052189 0.048095-0.052189c23.633257 23.400966 38.291095 55.731302 38.291095 91.27789l0 509.576811c0 35.429931-14.663978 67.714218-38.291095 91.179652l-0.048095 0.047072-0.057305 0.038886-0.074701 0.092098c-23.662933 23.355941-56.214303 37.851073-91.940992 37.851073L214.975143 956.278619c-35.767622 0-68.353784-14.528901-92.010577-37.943171l-0.064468-0.038886-0.040932-0.047072-0.080841-0.092098c-23.582091-23.430642-38.210253-55.685253-38.210253-91.082438L84.568071 193.192024c0-35.444257 14.657838-67.733661 38.292118-91.176582l0.040932-0.052189 0.064468-0.056282 0.074701-0.069585C146.697083 78.470189 179.25357 63.96994 214.975143 63.96994L214.975143 63.96994 214.975143 63.96994zM440.220187 522.334369l340.872504 0c31.334659 0 30.284747-38.452777-1.048889-38.452777L438.865329 483.881592C408.696216 483.880569 410.049027 522.334369 440.220187 522.334369L440.220187 522.334369 440.220187 522.334369zM306.588677 535.456225l38.367843 0c14.658861 0 26.553773-11.787464 26.553773-26.324552 0-14.528901-9.841136-25.251104-24.499997-25.251104l-39.366589 0c-14.657838 0-27.613918 10.722202-27.613918 25.251104C280.029788 523.668761 291.930839 535.456225 306.588677 535.456225L306.588677 535.456225 306.588677 535.456225zM307.643706 759.446695l39.366589 0c30.266327 0 30.266327-39.366589 0-39.366589l-39.366589 0C277.832749 720.080106 277.832749 759.446695 307.643706 759.446695l-1.055029 3.01773L307.643706 759.446695zM307.643706 641.34795l39.366589 0c29.196972 0 27.142174-38.471197-2.053776-38.471197l-38.367843 0C275.833209 602.876754 276.888238 641.34795 307.643706 641.34795l-1.055029 1.065262L307.643706 641.34795zM438.865329 759.446695c15.996322-0.320295 341.178473 0 341.178473 0 30.223349 0 30.223349-39.366589 0-39.366589L438.865329 720.080106C418.158728 720.490451 418.36339 759.857041 438.865329 759.446695zM438.865329 641.34795l341.178473 0c30.223349 0 31.274284-38.471197 1.048889-38.471197L440.220187 602.876754C419.126776 602.876754 419.580101 640.415718 438.865329 641.34795l1.353834 1.065262L438.865329 641.34795zM123.93466 326.414211l774.20891 0c0 0-3.472078-43.196825-26.244734-65.609277l0 0c-14.021342-13.854543-44.343951-26.245757-65.611324-26.245757L425.743474 234.559177c-14.835893 0-21.630646 0.348947-31.516808-9.389858l-0.057305-0.052189-0.065492-0.051165-0.038886-0.047072c-9.843182-9.803273-7.687076-28.203342-7.687076-42.947138 0 0-9.611915-78.733179-65.611324-78.733179L215.788671 103.338576c-51.402717 0-91.854011 56.641021-91.854011 91.855034L123.93466 326.414211zM898.143571 365.780801 123.93466 365.780801l0 459.277218c0 27.034726 66.413596 91.855034 91.854011 91.855034l590.499865 0c21.290909 0 41.411155-21.86703 55.356772-35.698037l0.110517-0.092098c13.951757-13.817704 36.387745-34.961256 36.387745-56.065923L898.143571 365.780801z" fill="#2A2B2B" p-id="11509"></path></svg>