<?xml version="1.0" standalone="no"?><!DOCTYPE svg PUBLIC "-//W3C//DTD SVG 1.1//EN" "http://www.w3.org/Graphics/SVG/1.1/DTD/svg11.dtd"><svg t="1775584764623" class="icon" viewBox="0 0 1414 1024" version="1.1" xmlns="http://www.w3.org/2000/svg" p-id="8315" xmlns:xlink="http://www.w3.org/1999/xlink" width="276.171875" height="200"><path d="M1265.371429 1.121524a124.342857 124.342857 0 0 1 124.342857 124.342857V361.325714l-26.819048 7.41181c-51.785143 14.238476-89.33181 65.536-89.331809 125.513143 0 60.025905 37.546667 111.274667 89.331809 125.561904l26.819048 7.41181V863.085714a124.342857 124.342857 0 0 1-124.342857 124.342857H124.342857A124.342857 124.342857 0 0 1 0 863.085714v-235.861333l26.819048-7.41181c51.785143-14.287238 89.33181-65.536 89.331809-125.561904 0-59.977143-37.546667-111.225905-89.283047-125.513143L0 361.325714 0 125.464381A124.342857 124.342857 0 0 1 124.342857 1.121524z m0 73.142857H124.342857c-28.281905 0-51.2 22.918095-51.2 51.2v182.467048c66.657524 30.232381 112.249905 98.255238 115.907048 176.128l0.243809 10.24c0 82.066286-46.616381 154.819048-116.150857 186.368V863.085714c0 26.38019 19.992381 48.128 45.641143 50.907429l5.558857 0.292571h1141.028572c28.281905 0 51.2-22.918095 51.2-51.2v-182.418285c-66.657524-30.232381-112.249905-98.304-115.907048-176.176762l-0.24381-10.24c0-82.115048 46.616381-154.819048 116.150858-186.319238V125.464381c0-26.428952-19.992381-48.128-45.641143-50.907429l-5.558857-0.292571z m-468.699429 174.08l51.687619 51.687619-127.951238 127.951238h143.993905v73.142857h-130.389334v76.409905h130.389334v63.390476h-130.389334v113.030095h-73.142857v-113.030095H512v-63.390476h148.870095v-76.409905H512v-73.142857h141.604571l-127.902476-127.951238 51.687619-51.687619 109.568 109.616762 109.714286-109.616762z" fill="#333333" p-id="8316"></path></svg>