<?xml version="1.0" standalone="no"?><!DOCTYPE svg PUBLIC "-//W3C//DTD SVG 1.1//EN" "http://www.w3.org/Graphics/SVG/1.1/DTD/svg11.dtd"><svg t="1773046993805" class="icon" viewBox="0 0 1024 1024" version="1.1" xmlns="http://www.w3.org/2000/svg" p-id="8568" xmlns:xlink="http://www.w3.org/1999/xlink" width="200" height="200"><path d="M481.524 97.768c16.53 0 33.158 0.975 49.444 2.925 29.258 3.511 54.858 22.43 66.755 49.396l34.036 77.239a17.7 17.7 0 0 0 18.188 10.533l83.87-9.119a84.358 84.358 0 0 1 76.118 33.012 414.476 414.476 0 0 1 49.494 85.577 84.26 84.26 0 0 1-9.411 82.603l-49.884 68.169a17.7 17.7 0 0 0 0 21.016l42.52 58.076h-81.822l-13.946-19.115a83.48 83.48 0 0 1 0-98.987l49.884-68.023a18.14 18.14 0 0 0 1.999-17.603 343.43 343.43 0 0 0-41.594-71.875 18.042 18.042 0 0 0-16.19-7.07l-83.918 9.167a83.578 83.578 0 0 1-85.821-49.493l-34.036-77.239a18.042 18.042 0 0 0-14.239-10.533 360.497 360.497 0 0 0-83.139 0 18.042 18.042 0 0 0-14.238 10.533l-34.036 77.239a83.578 83.578 0 0 1-85.82 49.493l-83.871-9.167a18.042 18.042 0 0 0-16.238 7.07c-16.677 22.285-30.72 46.422-41.594 71.875a18.14 18.14 0 0 0 1.95 17.603l50.03 68.17a83.48 83.48 0 0 1 0 98.986l-49.883 68.218a17.652 17.652 0 0 0-1.95 17.603c10.776 25.454 24.868 49.737 41.544 71.875a17.847 17.847 0 0 0 16.19 7.07l83.919-9.166a83.432 83.432 0 0 1 85.82 49.493l34.036 77.239a18.042 18.042 0 0 0 14.239 10.532 358.4 358.4 0 0 0 56.369 2.195v65.877a411.16 411.16 0 0 1-64.122-2.633 84.212 84.212 0 0 1-66.755-49.396l-34.085-77.19a17.7 17.7 0 0 0-18.188-10.581l-83.87 9.167c-3.073 0.244-5.998 0.487-9.021 0.487a84.358 84.358 0 0 1-67.097-33.499 414.476 414.476 0 0 1-49.493-85.626 84.26 84.26 0 0 1 9.41-82.603l49.884-68.169a17.7 17.7 0 0 0 0-20.967l-49.883-68.267a84.26 84.26 0 0 1-9.411-82.603 410.234 410.234 0 0 1 49.444-85.528 84.163 84.163 0 0 1 76.069-33.06l83.92 9.118a17.628 17.628 0 0 0 18.187-10.533l34.036-77.239a84.066 84.066 0 0 1 66.804-49.395 416.257 416.257 0 0 1 49.347-2.926z m211.968 530.87c9.167-0.292 17.603 5.9 21.455 15.75l99.523 236.496 1.56 5.217c2.439 12.288-2.633 25.357-12.678 30.867-10.093 5.51-21.845 1.658-28.184-8.534l-2.39-4.68-27.16-51.64h-93.135l-25.356 49.737c-4.681 13.898-18.042 20.675-29.842 15.117-11.752-5.56-17.506-21.358-12.825-35.255l88.26-236.008 1.51-3.608a22.772 22.772 0 0 1 19.262-13.459z m206.458 0c15.847 0 28.672 12.825 28.672 28.672v231.912a28.672 28.672 0 0 1-57.344 0V657.31c0-15.847 12.873-28.672 28.672-28.672zM693.492 727.82l-24.186 69.974h55.1l-30.914-69.974zM482.548 323.145a182.174 182.174 0 1 1 0 364.398 182.174 182.174 0 0 1 0-364.398z m0 69.242a112.981 112.981 0 1 0 0 225.914 112.981 112.981 0 0 0 0-225.914z" p-id="8569"></path></svg>