<?xml version="1.0" standalone="no"?><!DOCTYPE svg PUBLIC "-//W3C//DTD SVG 1.1//EN" "http://www.w3.org/Graphics/SVG/1.1/DTD/svg11.dtd"><svg t="1773048027740" class="icon" viewBox="0 0 1024 1024" version="1.1" xmlns="http://www.w3.org/2000/svg" p-id="13368" xmlns:xlink="http://www.w3.org/1999/xlink" width="200" height="200"><path d="M927.67326 143.362348H778.237925v-47.786539A96.050944 96.050944 0 0 0 681.504316 0.002731H96.392276A96.050944 96.050944 0 0 0 0 95.575809v832.851113A96.050944 96.050944 0 0 0 96.392276 1024h831.212717A96.050944 96.050944 0 0 0 1023.997269 928.426922V238.935427a95.914411 95.914411 0 0 0-96.324009-95.573079z m19.319415 785.064574a19.524215 19.524215 0 0 1-19.319415 19.182882H96.392276a19.660748 19.660748 0 0 1-19.387681-19.182882V95.575809a19.524215 19.524215 0 0 1 19.387681-19.182882h585.248573a19.387682 19.387682 0 0 1 19.319415 19.182882v676.930462a38.570564 38.570564 0 0 0 77.141128 0v-552.958526h149.640134a19.592481 19.592481 0 0 1 19.319415 19.251149z" fill="#707070" p-id="13369"></path><path d="M253.541724 465.170557H539.305229a57.753446 57.753446 0 0 0 57.889978-57.343847V272.317738a57.821712 57.821712 0 0 0-57.889978-57.343847H253.541724a57.753446 57.753446 0 0 0-57.889979 57.343847v135.577238a57.753446 57.753446 0 0 0 57.889979 57.275581z m307.199181 112.025301H234.631908a38.229231 38.229231 0 1 0 0 76.390196h326.108997a38.229231 38.229231 0 1 0 0-76.390196z m0 186.913635H234.631908a38.229231 38.229231 0 1 0 0 76.526729h326.108997a38.229231 38.229231 0 1 0 0-76.526729z" fill="#707070" p-id="13370"></path></svg>