<?xml version="1.0" standalone="no"?><!DOCTYPE svg PUBLIC "-//W3C//DTD SVG 1.1//EN" "http://www.w3.org/Graphics/SVG/1.1/DTD/svg11.dtd"><svg t="1775944039373" class="icon" viewBox="0 0 1024 1024" version="1.1" xmlns="http://www.w3.org/2000/svg" p-id="5621" xmlns:xlink="http://www.w3.org/1999/xlink" width="200" height="200"><path d="M584.774637 945.294234a39.350688 39.350688 0 0 1 2.925701 78.555092l-2.925701 0.146285h-196.753443a39.350688 39.350688 0 0 1-2.998844-78.628234h199.679144zM486.324773 0c228.204736 0 413.182229 185.050635 413.182229 413.182229 0 158.865605-82.943645 298.421578-216.355644 367.46814v36.351844c0 41.910678-32.914145 76.507101-74.824822 78.628234l-3.949698 0.073143H368.272707c-41.98382 0-76.580243-32.914145-78.628234-74.824822l-0.073143-3.876555v-36.278702C156.159331 711.67695 73.142544 572.047834 73.142544 413.255372 73.142544 185.050635 258.120037 0 486.324773 0z m0 78.701377A334.480852 334.480852 0 0 0 151.843921 413.255372c0 137.069127 74.75168 255.04805 192.803745 306.613543a39.277546 39.277546 0 0 1 21.065052 24.063897c1.389708 3.583985 2.194276 7.314254 2.486847 11.117666l0.073142 2.925702v59.026033h236.104131v-59.099175c0-4.534838 0.731425-8.996533 2.267419-13.165658a39.350688 39.350688 0 0 1 21.357623-24.868465c118.052065-51.565493 192.803745-169.471274 192.803745-306.686686A334.480852 334.480852 0 0 0 486.397915 78.701377zM395.847446 201.141995c2.925702 1.609136 5.119978 3.949697 6.729114 6.802257l36.424987 66.559714 66.559715 36.351845a17.042213 17.042213 0 0 1 0 29.9153l-66.559715 36.424987-36.424987 66.559714a17.042213 17.042213 0 0 1-29.9153 0l-36.424987-66.559714-66.559714-36.424987a17.042213 17.042213 0 0 1 0-29.988443l66.559714-36.351844 36.424987-66.559715a17.042213 17.042213 0 0 1 23.186186-6.729114z" fill="#8C8C8C" p-id="5622"></path></svg>